<?xml version="1.0" standalone="no"?><!DOCTYPE svg PUBLIC "-//W3C//DTD SVG 1.1//EN" "http://www.w3.org/Graphics/SVG/1.1/DTD/svg11.dtd"><svg class="icon" width="200px" height="200.00px" viewBox="0 0 1024 1024" version="1.1" xmlns="http://www.w3.org/2000/svg"><path fill="#333333" d="M512 0C229.269333 0 0 235.029333 0 524.970667c0 231.936 146.709333 428.714667 350.144 498.133333 25.578667 4.864 34.986667-11.392 34.986667-25.258667 0-12.522667-0.490667-53.866667-0.704-97.728-142.442667 31.744-172.501333-61.952-172.501334-61.952-23.296-60.672-56.853333-76.8-56.853333-76.8-46.442667-32.597333 3.52-31.914667 3.52-31.914666 51.413333 3.690667 78.485333 54.08 78.485333 54.08 45.653333 80.256 119.765333 57.066667 148.992 43.648 4.586667-33.92 17.856-57.088 32.512-70.186667-113.728-13.290667-233.28-58.304-233.28-259.456 0-57.301333 19.989333-104.128 52.757334-140.906667-5.312-13.205333-22.848-66.602667 4.949333-138.922666 0 0 43.008-14.101333 140.842667 53.824 40.832-11.648 84.650667-17.472 128.149333-17.664 43.52 0.192 87.36 6.016 128.277333 17.664 97.706667-67.925333 140.650667-53.824 140.650667-53.824 27.861333 72.32 10.346667 125.717333 5.013333 138.922666 32.832 36.778667 52.693333 83.605333 52.693334 140.906667 0 201.642667-119.765333 246.037333-233.770667 259.029333 18.346667 16.298667 34.709333 48.234667 34.709333 97.216 0 70.250667-0.576 126.762667-0.576 144.064 0 13.973333 9.216 30.336 35.157334 25.173334C877.482667 953.536 1024 756.821333 1024 524.970667 1024 235.029333 794.773333 0 512 0z"  /><path fill="#333333" d="M195.434667 750.122667c-1.130667 2.581333-5.12 3.370667-8.768 1.6-3.690667-1.706667-5.781333-5.226667-4.586667-7.808 1.109333-2.666667 5.098667-3.413333 8.810667-1.621334 3.712 1.685333 5.824 5.248 4.544 7.829334zM216.128 773.610667c-2.432 2.304-7.189333 1.237333-10.432-2.410667-3.349333-3.605333-3.968-8.469333-1.493333-10.794667 2.517333-2.304 7.125333-1.216 10.474666 2.410667 3.349333 3.669333 4.010667 8.469333 1.450667 10.794667zM236.288 803.541333c-3.136 2.218667-8.256 0.149333-11.413333-4.48-3.136-4.629333-3.136-10.154667 0.064-12.373333 3.178667-2.24 8.213333-0.234667 11.413333 4.352 3.136 4.693333 3.136 10.24-0.064 12.501333zM263.893333 832.469333c-2.816 3.136-8.768 2.304-13.141333-1.984-4.458667-4.202667-5.717333-10.154667-2.901333-13.290666 2.837333-3.157333 8.832-2.261333 13.226666 1.984 4.437333 4.202667 5.802667 10.176 2.816 13.290666zM301.973333 849.258667c-1.237333 4.074667-6.976 5.930667-12.778666 4.202666-5.781333-1.792-9.557333-6.549333-8.384-10.666666 1.194667-4.096 6.976-6.037333 12.8-4.181334 5.76 1.770667 9.557333 6.506667 8.362666 10.645334zM343.786667 852.373333c0.149333 4.288-4.757333 7.850667-10.837334 7.914667-6.101333 0.149333-11.050667-3.328-11.114666-7.530667 0-4.330667 4.8-7.850667 10.901333-7.957333 6.08-0.128 11.050667 3.328 11.050667 7.573333zM382.72 845.632c0.725333 4.181333-3.498667 8.490667-9.536 9.621333-5.930667 1.109333-11.413333-1.472-12.181333-5.632-0.725333-4.266667 3.562667-8.576 9.493333-9.685333 6.037333-1.066667 11.456 1.450667 12.224 5.696z"  /></svg>