<?xml version="1.0" standalone="no"?><!DOCTYPE svg PUBLIC "-//W3C//DTD SVG 1.1//EN" "http://www.w3.org/Graphics/SVG/1.1/DTD/svg11.dtd"><svg class="icon" width="200px" height="200.00px" viewBox="0 0 1024 1024" version="1.1" xmlns="http://www.w3.org/2000/svg"><path d="M512 2.56C231.424 2.56 3.584 229.888 3.584 510.976S231.424 1018.88 512 1018.88s508.416-227.328 508.416-508.416S793.088 2.56 512 2.56z m0 941.568c-239.616 0-433.664-194.048-433.664-433.664S272.384 76.8 512 76.8s433.664 194.048 433.664 433.664-194.048 433.664-433.664 433.664z" fill="#F4DCCB" /><path d="M684.544 563.712h-164.352v-286.72c0-14.848-11.776-26.624-26.624-26.624-14.848 0-26.624 11.776-26.624 26.624v303.104l-146.432 146.432c-10.24 10.24-10.24 27.136 0 37.376s27.136 10.24 37.376 0l146.432-146.432h180.224c14.848 0 26.624-11.776 26.624-26.624 0-15.36-11.776-27.136-26.624-27.136z" fill="#FF9D4D" /></svg>