<?xml version="1.0" standalone="no"?><!DOCTYPE svg PUBLIC "-//W3C//DTD SVG 1.1//EN" "http://www.w3.org/Graphics/SVG/1.1/DTD/svg11.dtd"><svg class="icon" width="200px" height="200.00px" viewBox="0 0 1024 1024" version="1.1" xmlns="http://www.w3.org/2000/svg"><path d="M566.79 777.03c0 11.584-9.392 20.981-20.981 20.981h-27.976c-11.591 0-20.982-9.397-20.982-20.981 0-11.598 9.392-20.981 20.982-20.981h27.976c11.589 0 20.981 9.384 20.981 20.981z" fill="#37ABE7" /><path d="M336.954 434.329c23.141 0 41.964 18.824 41.964 41.963v251.781c0 23.14-18.823 41.963-41.964 41.963-23.14 0-41.963-18.823-41.963-41.963V476.292c0-23.139 18.823-41.963 41.963-41.963m0-41.963c-46.348 0-83.927 37.579-83.927 83.927v251.781c0 46.348 37.579 83.927 83.927 83.927 46.349 0 83.927-37.579 83.927-83.927V476.292c0-46.348-37.578-83.926-83.927-83.926z" fill="#333333" /><path d="M770.925 548.622c0.267-71.018-77.801-71.086-78.094-71.086l-31.391-1.175c34.43-39.409 59.182-118.268 36.178-187.729C678.945 232.244 644.897 212 612.564 212c-38.494 0-74.563 28.699-79.344 59.216-22.43 143.279-133.246 149.167-151.332 149.167-1.625 0-2.5-0.041-2.5-0.041v339.205s11.652 38.466 67.604 38.466h0.321V756.05h-0.321c-15.04 0-22.286-4.193-25.64-7.432V458.043c66.313-14.479 135.589-67.002 153.326-180.339 1.271-8.114 18.147-23.741 37.886-23.741 24.274 0 37.988 26.022 45.215 47.851 19.042 57.495-4.877 120.536-27.941 146.94l-59.722 68.354 90.764 1.216 31.548 1.175c16.713 0.355 36.622 5.669 36.533 28.973-0.307 83.148 0.048 192.633 0.048 193.753 0 0.027-1.271 3.935-3.729 6.406-4.692 4.713-15.245 7.418-28.953 7.418h-82.328v41.963h82.328c74.864 0 74.646-55.951 74.646-55.951s-0.363-109.471-0.048-193.439z" fill="#333333" /><path d="M468.151 777.03c0 11.584-9.392 20.981-20.981 20.981-11.591 0-20.981-9.397-20.981-20.981 0-11.598 9.391-20.981 20.981-20.981 11.59 0 20.981 9.384 20.981 20.981zM634.912 777.03c0 11.584-9.391 20.981-20.981 20.981s-20.981-9.397-20.981-20.981c0-11.598 9.391-20.981 20.981-20.981s20.981 9.384 20.981 20.981z" fill="#333333" /></svg>