<?xml version="1.0" standalone="no"?><!DOCTYPE svg PUBLIC "-//W3C//DTD SVG 1.1//EN" "http://www.w3.org/Graphics/SVG/1.1/DTD/svg11.dtd"><svg class="icon" width="200px" height="200.00px" viewBox="0 0 1024 1024" version="1.1" xmlns="http://www.w3.org/2000/svg"><path fill="#333333" d="M572.5 265.1H394c-14.5 0-27.1-10.3-30-24.6l-23.4-116.8c-2.8-14.2 0.8-28.7 10-39.9s22.7-17.6 37.2-17.6h191c14.5 0 28 6.4 37.2 17.6 9.2 11.2 12.8 25.7 10 39.9l-23.4 116.8c-3 14.3-15.6 24.6-30.1 24.6zM387.7 92.8c-6.5 0-12.5 2.9-16.6 7.9s-5.7 11.5-4.4 17.8l23.4 116.8c0.4 1.8 2 3.2 3.9 3.2h178.5c1.9 0 3.5-1.3 3.9-3.2l23.4-116.8c1.3-6.3-0.4-12.8-4.4-17.8s-10.1-7.9-16.6-7.9H387.7zM483.3 957.8c-12.9 0-25-5-34.1-14.2l-1.1-1.3-117.9-153.5c-10.1-10.6-14.9-25.6-12.7-40.2l46.8-414.8c2.4-16.1 16-27.9 31.8-27.9h174.4c15.8 0 29.5 11.8 31.8 27.4L649.2 749c2.1 14.1-2.7 29.1-12.8 39.7l-119 154.8c-9.1 9.2-21.2 14.3-34.1 14.3z m-14.7-32.5c7.9 7.5 21.3 7.5 29.3 0l118.9-154.7c4.7-4.8 6.9-11.6 6-18.2l-46.9-415.7c-0.3-2.2-2.7-4.2-5.4-4.2H396.1c-2.7 0-5 2-5.4 4.7L343.9 752c-1 7.1 1.2 13.9 5.9 18.6l1.1 1.3 117.7 153.4z"  /><path fill="#333333" d="M652.7 699.8c-1.5 0-2.9-0.2-4.4-0.8-6.9-2.4-10.6-10-8.2-17l39.5-112.8c1.1-2.2 1.1-4.7 0-6.9l-106-230.6c-3.1-6.7-0.1-14.6 6.5-17.7 6.7-3 14.6-0.1 17.7 6.5l105.8 230.2c4.5 8.9 4.6 20 0.3 29.5l-38.6 110.5c-2 5.7-7.1 9.1-12.6 9.1z"  /></svg>